<?xml version="1.0" encoding="UTF-8"?>
<!DOCTYPE svg PUBLIC "-//W3C//DTD SVG 1.1//EN" "http://www.w3.org/Graphics/SVG/1.1/DTD/svg11.dtd">
<svg xmlns="http://www.w3.org/2000/svg" version="1.1" width="512px" height="512px" style="shape-rendering:geometricPrecision; text-rendering:geometricPrecision; image-rendering:optimizeQuality; fill-rule:evenodd; clip-rule:evenodd" xmlns:xlink="http://www.w3.org/1999/xlink">
<g><path style="opacity:0.994" fill="#000000" d="M 23.5,198.5 C 26.7926,199.41 29.2926,201.41 31,204.5C 31.3333,273.167 31.6667,341.833 32,410.5C 32.4652,411.931 33.2986,413.097 34.5,414C 170.753,415.497 307.086,415.997 443.5,415.5C 453.839,415.666 464.172,415.5 474.5,415C 476.667,414.167 478.167,412.667 479,410.5C 479.667,312.5 479.667,214.5 479,116.5C 478.167,114.333 476.667,112.833 474.5,112C 470.514,111.501 466.514,111.334 462.5,111.5C 444.167,111.5 425.833,111.5 407.5,111.5C 407.5,116.833 407.5,122.167 407.5,127.5C 424.17,127.333 440.837,127.5 457.5,128C 459.881,128.223 461.547,129.39 462.5,131.5C 463.831,208.804 463.831,286.137 462.5,363.5C 461.547,365.61 459.881,366.777 457.5,367C 321.753,367.997 186.086,367.663 50.5,366C 49.1068,364.829 48.2735,363.329 48,361.5C 47.3333,285.167 47.3333,208.833 48,132.5C 48.8333,130.333 50.3333,128.833 52.5,128C 69.4967,127.5 86.4967,127.333 103.5,127.5C 103.5,122.167 103.5,116.833 103.5,111.5C 81.1642,111.333 58.8308,111.5 36.5,112C 34.3333,112.833 32.8333,114.333 32,116.5C 31.9021,124.577 31.2355,132.577 30,140.5C 27.9871,142.248 25.8205,143.582 23.5,144.5C 20.4924,144.123 17.9924,142.789 16,140.5C 15.3333,131.167 15.3333,121.833 16,112.5C 18.8333,104.333 24.3333,98.8333 32.5,96C 56.1643,95.5 79.831,95.3334 103.5,95.5C 103.333,70.1645 103.5,44.8311 104,19.5C 105.339,16.9057 107.506,15.4057 110.5,15C 135.167,14.3333 159.833,14.3333 184.5,15C 187.494,15.4057 189.661,16.9057 191,19.5C 191.5,26.1583 191.666,32.825 191.5,39.5C 214.169,39.3334 236.836,39.5 259.5,40C 261.333,40.5 262.5,41.6667 263,43.5C 263.5,50.1583 263.666,56.825 263.5,63.5C 281.833,63.5 300.167,63.5 318.5,63.5C 318.333,49.8293 318.5,36.1626 319,22.5C 319.5,18 322,15.5 326.5,15C 338.833,14.8333 351.167,14.6667 363.5,14.5C 376.899,14.3602 390.233,14.8602 403.5,16C 406.094,17.339 407.594,19.5056 408,22.5C 408.5,46.8311 408.667,71.1644 408.5,95.5C 431.836,95.3334 455.169,95.5 478.5,96C 486.667,98.8333 492.167,104.333 495,112.5C 495.667,213.167 495.667,313.833 495,414.5C 492.167,422.667 486.667,428.167 478.5,431C 420.5,431.333 362.5,431.667 304.5,432C 309.888,449.78 318.888,465.446 331.5,479C 339.5,479.333 347.5,479.667 355.5,480C 356.416,480.374 357.25,480.874 358,481.5C 359.483,484.702 359.817,488.036 359,491.5C 358.5,493.333 357.333,494.5 355.5,495C 288.833,495.667 222.167,495.667 155.5,495C 150.745,491.158 149.911,486.658 153,481.5C 153.75,480.874 154.584,480.374 155.5,480C 163.5,479.667 171.5,479.333 179.5,479C 192.466,465.571 201.133,449.738 205.5,431.5C 147.832,431.667 90.1657,431.5 32.5,431C 24.3333,428.167 18.8333,422.667 16,414.5C 15.3333,343.833 15.3333,273.167 16,202.5C 17.9411,200.13 20.4411,198.797 23.5,198.5 Z"/></g>
<g><path style="opacity:1" fill="#fb5f66" d="M 159.5,31.5 C 159.5,42.1667 159.5,52.8333 159.5,63.5C 146.167,63.5 132.833,63.5 119.5,63.5C 119.5,52.8333 119.5,42.1667 119.5,31.5C 132.833,31.5 146.167,31.5 159.5,31.5 Z"/></g>
<g><path style="opacity:1" fill="#fa4f56" d="M 159.5,31.5 C 164.833,31.5 170.167,31.5 175.5,31.5C 175.5,42.1667 175.5,52.8333 175.5,63.5C 170.167,63.5 164.833,63.5 159.5,63.5C 159.5,52.8333 159.5,42.1667 159.5,31.5 Z"/></g>
<g><path style="opacity:1" fill="#59e78a" d="M 375.5,31.5 C 375.5,90.1667 375.5,148.833 375.5,207.5C 362.167,207.5 348.833,207.5 335.5,207.5C 335.5,148.833 335.5,90.1667 335.5,31.5C 348.833,31.5 362.167,31.5 375.5,31.5 Z"/></g>
<g><path style="opacity:1" fill="#41e379" d="M 375.5,31.5 C 380.833,31.5 386.167,31.5 391.5,31.5C 391.5,90.1667 391.5,148.833 391.5,207.5C 386.167,207.5 380.833,207.5 375.5,207.5C 375.5,148.833 375.5,90.1667 375.5,31.5 Z"/></g>
<g><path style="opacity:1" fill="#68b1fc" d="M 231.5,55.5 C 231.5,106.167 231.5,156.833 231.5,207.5C 218.167,207.5 204.833,207.5 191.5,207.5C 191.5,156.833 191.5,106.167 191.5,55.5C 204.833,55.5 218.167,55.5 231.5,55.5 Z"/></g>
<g><path style="opacity:1" fill="#4ea3fa" d="M 231.5,55.5 C 236.833,55.5 242.167,55.5 247.5,55.5C 247.5,106.167 247.5,156.833 247.5,207.5C 242.167,207.5 236.833,207.5 231.5,207.5C 231.5,156.833 231.5,106.167 231.5,55.5 Z"/></g>
<g><path style="opacity:1" fill="#e4e8ed" d="M 119.5,79.5 C 138.167,79.5 156.833,79.5 175.5,79.5C 175.5,84.8333 175.5,90.1667 175.5,95.5C 156.833,95.5 138.167,95.5 119.5,95.5C 119.5,90.1667 119.5,84.8333 119.5,79.5 Z"/></g>
<g><path style="opacity:1" fill="#fbb85f" d="M 303.5,79.5 C 303.5,90.1667 303.5,100.833 303.5,111.5C 290.167,111.5 276.833,111.5 263.5,111.5C 263.5,100.833 263.5,90.1667 263.5,79.5C 276.833,79.5 290.167,79.5 303.5,79.5 Z"/></g>
<g><path style="opacity:1" fill="#faaf4e" d="M 303.5,79.5 C 308.833,79.5 314.167,79.5 319.5,79.5C 319.5,90.1667 319.5,100.833 319.5,111.5C 314.167,111.5 308.833,111.5 303.5,111.5C 303.5,100.833 303.5,90.1667 303.5,79.5 Z"/></g>
<g><path style="opacity:1" fill="#e6eaee" d="M 462.5,363.5 C 463.166,368.823 463.499,374.323 463.5,380C 466.453,397.623 459.786,409.457 443.5,415.5C 307.086,415.997 170.753,415.497 34.5,414C 33.2986,413.097 32.4652,411.931 32,410.5C 31.6667,341.833 31.3333,273.167 31,204.5C 29.2926,201.41 26.7926,199.41 23.5,198.5C 23.5,193.833 23.5,189.167 23.5,184.5C 29.9313,182.481 32.5979,177.981 31.5,171C 32.441,164.357 29.7743,160.19 23.5,158.5C 23.5,153.833 23.5,149.167 23.5,144.5C 25.8205,143.582 27.9871,142.248 30,140.5C 31.2355,132.577 31.9021,124.577 32,116.5C 32.8333,114.333 34.3333,112.833 36.5,112C 58.8308,111.5 81.1642,111.333 103.5,111.5C 103.5,116.833 103.5,122.167 103.5,127.5C 86.4967,127.333 69.4967,127.5 52.5,128C 50.3333,128.833 48.8333,130.333 48,132.5C 47.3333,208.833 47.3333,285.167 48,361.5C 48.2735,363.329 49.1068,364.829 50.5,366C 186.086,367.663 321.753,367.997 457.5,367C 459.881,366.777 461.547,365.61 462.5,363.5 Z"/></g>
<g><path style="opacity:1" fill="#fb5f66" d="M 159.5,111.5 C 159.667,162.834 159.5,214.168 159,265.5C 158.5,268.667 156.667,270.5 153.5,271C 142.172,271.5 130.838,271.667 119.5,271.5C 119.5,218.167 119.5,164.833 119.5,111.5C 132.833,111.5 146.167,111.5 159.5,111.5 Z"/></g>
<g><path style="opacity:1" fill="#fa4f56" d="M 159.5,111.5 C 164.833,111.5 170.167,111.5 175.5,111.5C 175.5,170.167 175.5,228.833 175.5,287.5C 156.833,287.5 138.167,287.5 119.5,287.5C 119.5,282.167 119.5,276.833 119.5,271.5C 130.838,271.667 142.172,271.5 153.5,271C 156.667,270.5 158.5,268.667 159,265.5C 159.5,214.168 159.667,162.834 159.5,111.5 Z"/></g>
<g><path style="opacity:1" fill="#e6eaee" d="M 462.5,111.5 C 463.732,118.309 463.732,124.976 462.5,131.5C 461.547,129.39 459.881,128.223 457.5,128C 440.837,127.5 424.17,127.333 407.5,127.5C 407.5,122.167 407.5,116.833 407.5,111.5C 425.833,111.5 444.167,111.5 462.5,111.5 Z"/></g>
<g><path style="opacity:1" fill="#dae0e6" d="M 462.5,111.5 C 466.514,111.334 470.514,111.501 474.5,112C 476.667,112.833 478.167,114.333 479,116.5C 479.667,214.5 479.667,312.5 479,410.5C 478.167,412.667 476.667,414.167 474.5,415C 464.172,415.5 453.839,415.666 443.5,415.5C 459.786,409.457 466.453,397.623 463.5,380C 463.499,374.323 463.166,368.823 462.5,363.5C 463.831,286.137 463.831,208.804 462.5,131.5C 463.732,124.976 463.732,118.309 462.5,111.5 Z"/></g>
<g><path style="opacity:1" fill="#e3e8ec" d="M 263.5,127.5 C 282.167,127.5 300.833,127.5 319.5,127.5C 319.5,132.833 319.5,138.167 319.5,143.5C 300.833,143.5 282.167,143.5 263.5,143.5C 263.5,138.167 263.5,132.833 263.5,127.5 Z"/></g>
<g><path style="opacity:1" fill="#4ea3fa" d="M 84.5,143.5 C 82.525,144.646 81.025,146.313 80,148.5C 79.5,196.499 79.3333,244.499 79.5,292.5C 79.5,304.833 79.5,317.167 79.5,329.5C 79.5,336.833 79.5,344.167 79.5,351.5C 74.1667,351.5 68.8333,351.5 63.5,351.5C 63.5,282.167 63.5,212.833 63.5,143.5C 70.5,143.5 77.5,143.5 84.5,143.5 Z"/></g>
<g><path style="opacity:1" fill="#67b0fb" d="M 84.5,143.5 C 90.8333,143.5 97.1667,143.5 103.5,143.5C 103.5,191.5 103.5,239.5 103.5,287.5C 97.1579,287.334 90.8246,287.5 84.5,288C 82.313,289.025 80.6464,290.525 79.5,292.5C 79.3333,244.499 79.5,196.499 80,148.5C 81.025,146.313 82.525,144.646 84.5,143.5 Z"/></g>
<g><path style="opacity:1" fill="#67b0fb" d="M 79.5,351.5 C 79.5,344.167 79.5,336.833 79.5,329.5C 80.2203,332.06 81.887,333.893 84.5,335C 198.167,335.667 311.833,335.667 425.5,335C 428.667,334.5 430.5,332.667 431,329.5C 431.667,317.167 431.667,304.833 431,292.5C 430.065,289.898 428.232,288.398 425.5,288C 419.509,287.501 413.509,287.334 407.5,287.5C 407.5,239.5 407.5,191.5 407.5,143.5C 420.833,143.5 434.167,143.5 447.5,143.5C 447.5,212.833 447.5,282.167 447.5,351.5C 324.833,351.5 202.167,351.5 79.5,351.5 Z"/></g>
<g><path style="opacity:0.96" fill="#020202" d="M 23.5,158.5 C 29.7743,160.19 32.441,164.357 31.5,171C 32.5979,177.981 29.9313,182.481 23.5,184.5C 16.2824,183.422 13.6157,179.255 15.5,172C 13.7433,164.658 16.41,160.158 23.5,158.5 Z"/></g>
<g><path style="opacity:1" fill="#fbb75f" d="M 303.5,159.5 C 303.981,195.895 303.481,232.228 302,268.5C 301.097,269.701 299.931,270.535 298.5,271C 286.838,271.5 275.171,271.667 263.5,271.5C 263.5,234.167 263.5,196.833 263.5,159.5C 276.833,159.5 290.167,159.5 303.5,159.5 Z"/></g>
<g><path style="opacity:1" fill="#faaf4e" d="M 303.5,159.5 C 308.833,159.5 314.167,159.5 319.5,159.5C 319.5,202.167 319.5,244.833 319.5,287.5C 300.833,287.5 282.167,287.5 263.5,287.5C 263.5,282.167 263.5,276.833 263.5,271.5C 275.171,271.667 286.838,271.5 298.5,271C 299.931,270.535 301.097,269.701 302,268.5C 303.481,232.228 303.981,195.895 303.5,159.5 Z"/></g>
<g><path style="opacity:1" fill="#e4e8ed" d="M 191.5,223.5 C 210.167,223.5 228.833,223.5 247.5,223.5C 247.5,228.833 247.5,234.167 247.5,239.5C 228.833,239.5 210.167,239.5 191.5,239.5C 191.5,234.167 191.5,228.833 191.5,223.5 Z"/></g>
<g><path style="opacity:1" fill="#e4e8ed" d="M 335.5,223.5 C 354.167,223.5 372.833,223.5 391.5,223.5C 391.5,228.833 391.5,234.167 391.5,239.5C 372.833,239.5 354.167,239.5 335.5,239.5C 335.5,234.167 335.5,228.833 335.5,223.5 Z"/></g>
<g><path style="opacity:1" fill="#67b0fb" d="M 231.5,255.5 C 231.79,259.936 231.29,264.27 230,268.5C 229.097,269.701 227.931,270.535 226.5,271C 214.838,271.5 203.171,271.667 191.5,271.5C 191.5,266.167 191.5,260.833 191.5,255.5C 204.833,255.5 218.167,255.5 231.5,255.5 Z"/></g>
<g><path style="opacity:1" fill="#4ea3fa" d="M 231.5,255.5 C 236.833,255.5 242.167,255.5 247.5,255.5C 247.5,266.167 247.5,276.833 247.5,287.5C 228.833,287.5 210.167,287.5 191.5,287.5C 191.5,282.167 191.5,276.833 191.5,271.5C 203.171,271.667 214.838,271.5 226.5,271C 227.931,270.535 229.097,269.701 230,268.5C 231.29,264.27 231.79,259.936 231.5,255.5 Z"/></g>
<g><path style="opacity:1" fill="#58e68a" d="M 375.5,255.5 C 375.79,259.936 375.29,264.27 374,268.5C 373.097,269.701 371.931,270.535 370.5,271C 358.838,271.5 347.171,271.667 335.5,271.5C 335.5,266.167 335.5,260.833 335.5,255.5C 348.833,255.5 362.167,255.5 375.5,255.5 Z"/></g>
<g><path style="opacity:1" fill="#41e37a" d="M 375.5,255.5 C 380.833,255.5 386.167,255.5 391.5,255.5C 391.5,266.167 391.5,276.833 391.5,287.5C 372.833,287.5 354.167,287.5 335.5,287.5C 335.5,282.167 335.5,276.833 335.5,271.5C 347.171,271.667 358.838,271.5 370.5,271C 371.931,270.535 373.097,269.701 374,268.5C 375.29,264.27 375.79,259.936 375.5,255.5 Z"/></g>
<g><path style="opacity:1" fill="#fbb75f" d="M 399.5,303.5 C 399.665,307.182 399.499,310.848 399,314.5C 397.893,317.113 396.06,318.78 393.5,319.5C 294.167,319.5 194.833,319.5 95.5,319.5C 95.5,314.167 95.5,308.833 95.5,303.5C 196.833,303.5 298.167,303.5 399.5,303.5 Z"/></g>
<g><path style="opacity:1" fill="#fbb04f" d="M 399.5,303.5 C 404.833,303.5 410.167,303.5 415.5,303.5C 415.5,308.833 415.5,314.167 415.5,319.5C 408.167,319.5 400.833,319.5 393.5,319.5C 396.06,318.78 397.893,317.113 399,314.5C 399.499,310.848 399.665,307.182 399.5,303.5 Z"/></g>
<g><path style="opacity:1" fill="#030303" d="M 236.5,383.5 C 248.838,383.333 261.171,383.5 273.5,384C 279.462,386.405 280.962,390.571 278,396.5C 276.829,397.893 275.329,398.727 273.5,399C 261.167,399.667 248.833,399.667 236.5,399C 229.889,393.798 229.889,388.631 236.5,383.5 Z"/></g>
<g><path style="opacity:1" fill="#d9dfe5" d="M 291.5,479.5 C 285.25,469.499 279.916,458.999 275.5,448C 256.427,447.18 237.427,447.347 218.5,448.5C 220.596,443.022 221.929,437.355 222.5,431.5C 244.5,431.5 266.5,431.5 288.5,431.5C 291.43,449.023 298.43,464.69 309.5,478.5C 303.537,479.496 297.537,479.829 291.5,479.5 Z"/></g>
<g><path style="opacity:1" fill="#e6eaee" d="M 291.5,479.5 C 261.493,479.833 231.493,479.5 201.5,478.5C 208.711,469.415 214.378,459.415 218.5,448.5C 237.427,447.347 256.427,447.18 275.5,448C 279.916,458.999 285.25,469.499 291.5,479.5 Z"/></g>
</svg>
